<svg width="16" height="16" fill="none" xmlns="http://www.w3.org/2000/svg"><rect width="16" height="16" rx="4" fill="#EEE"/><path d="M13.986 9.53L12.96 5.312C12.89 4.85 12.446 4 11.256 4a.298.298 0 00-.297.296.296.296 0 00.297.296c.962 0 1.104.737 1.118.818l.944 3.89h-.415a2.362 2.362 0 00-1.05-1.682.495.495 0 00-.303.505 1.82 1.82 0 01.793 1.476c-.002.099-.01.198-.028.296a1.788 1.788 0 01-3.526 0 1.831 1.831 0 01-.028-.296c.003-.274.067-.544.188-.79a.397.397 0 01-.369-.395.14.14 0 00-.037-.097 2.333 2.333 0 00-.355.987h-.369a2.367 2.367 0 00-.776-1.508 2.384 2.384 0 00-3.177 0c-.437.39-.713.927-.776 1.508h-.41l.945-3.894c.012-.081.16-.818 1.118-.818a.298.298 0 00.297-.296A.296.296 0 004.743 4c-1.19 0-1.633.85-1.705 1.313L2.011 9.53a.28.28 0 00.284.36h.793c.016.122.041.243.075.361a.148.148 0 00.02-.07.394.394 0 01.492-.382 1.79 1.79 0 01-.014-.207c0-.1.009-.199.025-.297a1.78 1.78 0 01.6-1.082 1.788 1.788 0 012.929 1.082 1.786 1.786 0 01-.5 1.55 1.8 1.8 0 01-1.258.524 1.788 1.788 0 01-1.077-.342.397.397 0 01-.257.097.149.149 0 00-.147.148c0 .055-.013.11-.036.16.424.35.958.542 1.509.541a2.384 2.384 0 001.58-.59 2.36 2.36 0 00.79-1.487h.361c.065.579.342 1.114.778 1.502a2.384 2.384 0 003.171 0 2.37 2.37 0 00.779-1.502h.792a.28.28 0 00.296-.23.277.277 0 00-.01-.136z" fill="#000"/></svg>