<svg width="238" height="276" fill="none" xmlns="http://www.w3.org/2000/svg">
  <path d="m211.314 81.6277 4.273-4.2869c6.165-6.1745 7.291-15.1483 2.499-19.9391-4.792-4.7908-13.752-3.679-19.91 2.4954l-4.305 4.3109c-17.125-13.9301-37.797-22.7893-59.684-25.5776v-7.6701h6.118c8.714 0 15.846-6.9663 15.846-15.4761C156.151 6.9742 149.019 0 140.305 0H97.7208c-8.7133 0-15.8453 6.9663-15.8453 15.4842 0 8.5178 7.132 15.4761 15.8453 15.4761h6.1182v7.6701c-26.1423 3.3629-50.4297 15.3218-69.0518 34.0004C16.1652 91.3093 4.2622 115.651.9459 141.835c-3.3163 26.185 2.1418 52.731 15.5179 75.474 13.3761 22.743 33.9132 40.395 58.389 50.187a118.839 118.839 0 0 0 76.8472 3.916c25.342-7.252 47.563-22.725 63.175-43.991 15.613-21.265 23.734-47.119 23.089-73.506-.644-26.386-10.018-51.812-26.65-72.2873ZM119.013 244.947c-17.403 0-34.4146-5.168-48.8844-14.85-14.4697-9.683-25.7473-23.445-32.4067-39.546a88.2302 88.2302 0 0 1-5.0057-50.911c3.3957-17.093 11.7765-32.793 24.0827-45.1159C69.105 82.2015 84.7837 73.81 101.852 70.411a87.8707 87.8707 0 0 1 50.838 5.0175c16.078 6.6704 29.819 17.9654 39.486 32.4565 9.668 14.492 14.827 31.528 14.825 48.956-.002 23.368-9.273 45.778-25.774 62.301-16.501 16.523-38.879 25.805-62.214 25.805Z" fill="#DEDEDE"/>
  <circle cx="119" cy="157" r="93" stroke="#D22856" stroke-width="16"/>
  <path d="M115.906 191H68v-10.078l17.2031-17.391c5.0938-5.219 8.4219-8.828 9.9844-10.828 1.5625-2.031 2.6875-3.906 3.375-5.625.6875-1.719 1.0313-3.5 1.0313-5.344 0-2.75-.7657-4.796-2.2969-6.14-1.5-1.344-3.5157-2.016-6.0469-2.016-2.6562 0-5.2344.61-7.7344 1.828-2.5 1.219-5.1094 2.953-7.8281 5.203l-7.875-9.328c3.375-2.875 6.1719-4.906 8.3906-6.093 2.2188-1.188 4.6407-2.094 7.2657-2.719 2.625-.657 5.5624-.985 8.8124-.985 4.2813 0 8.0628.782 11.3438 2.344 3.281 1.563 5.828 3.75 7.641 6.563 1.812 2.812 2.718 6.031 2.718 9.656 0 3.156-.562 6.125-1.687 8.906-1.094 2.75-2.813 5.578-5.156 8.485-2.313 2.906-6.407 7.046-12.2816 12.421l-8.8125 8.297v.656h29.8591V191Zm56.391-14.203h-8.25V191h-14.156v-14.203h-29.25v-10.078l30.047-44.25h13.359v43.078h8.25v11.25Zm-22.406-11.25v-11.625c0-1.938.078-4.75.234-8.438.156-3.687.281-5.828.375-6.422h-.375c-1.156 2.563-2.547 5.063-4.172 7.5l-12.562 18.985h16.5Z" fill="#D22856"/>
</svg>
