<svg width="31" height="21" fill="none" xmlns="http://www.w3.org/2000/svg"><path d="M30.5559.4295a1.5403 1.5403 0 0 0-.4988-.3178A1.607 1.607 0 0 0 29.4676 0c-.2023 0-.4026.038-.5894.1117a1.5403 1.5403 0 0 0-.4988.3178l-18.005 17.0663-7.7967-7.3861c-.2906-.2565-.6749-.396-1.072-.3895-.397.0067-.776.159-1.0568.4251-.2808.2661-.4417.625-.4487 1.0011-.007.3762.1404.7403.4112 1.0155l8.8798 8.4122c.1419.1353.3107.2426.4966.3157.186.0731.3853.1106.5866.1102.4062-.0014.7954-.1544 1.0832-.4259L30.5559 2.4817c.2846-.2735.4441-.642.4441-1.026 0-.3841-.1595-.7527-.4441-1.0262Z" fill="#3DC644"/></svg>